<svg id="svg" version="1.1" xmlns="http://www.w3.org/2000/svg" xmlns:xlink="http://www.w3.org/1999/xlink" width="400" height="400" viewBox="0, 0, 400,400"><g id="svgg"><path id="path0" d="M211.600 75.251 C 210.390 75.436,208.230 75.765,206.800 75.982 C 201.984 76.709,201.200 76.886,201.200 77.244 C 201.200 77.440,200.480 77.600,199.600 77.600 C 198.720 77.600,198.000 77.780,198.000 78.000 C 198.000 78.220,197.381 78.400,196.624 78.400 C 195.867 78.400,195.136 78.580,195.000 78.800 C 194.864 79.020,194.313 79.200,193.776 79.200 C 193.239 79.200,192.800 79.380,192.800 79.600 C 192.800 79.820,192.260 80.000,191.600 80.000 C 190.940 80.000,190.400 80.180,190.400 80.400 C 190.400 80.620,190.040 80.800,189.600 80.800 C 189.160 80.800,188.800 80.980,188.800 81.200 C 188.800 81.420,188.260 81.600,187.600 81.600 C 186.940 81.600,186.400 81.780,186.400 82.000 C 186.400 82.220,186.065 82.400,185.656 82.400 C 184.854 82.400,179.887 84.805,179.667 85.300 C 179.593 85.465,179.203 85.600,178.800 85.600 C 178.397 85.600,178.007 85.735,177.933 85.900 C 177.860 86.065,176.945 86.633,175.900 87.163 C 174.855 87.692,174.000 88.277,174.000 88.463 C 174.000 88.648,173.680 88.800,173.288 88.800 C 172.897 88.800,172.317 89.160,172.000 89.600 C 171.683 90.040,171.103 90.400,170.712 90.400 C 170.320 90.400,170.000 90.567,170.000 90.771 C 170.000 90.975,169.280 91.460,168.400 91.848 C 167.520 92.236,166.800 92.687,166.800 92.850 C 166.800 93.013,166.431 93.263,165.980 93.406 C 165.529 93.549,164.545 94.282,163.793 95.033 C 163.042 95.785,162.285 96.400,162.111 96.400 C 161.938 96.400,161.031 97.120,160.097 98.000 C 159.163 98.880,158.302 99.600,158.184 99.600 C 158.066 99.600,156.363 101.220,154.400 103.200 C 150.949 106.680,150.770 106.800,149.015 106.800 C 148.017 106.800,147.200 106.620,147.200 106.400 C 147.200 106.144,143.667 106.000,137.400 106.000 C 131.133 106.000,127.600 106.144,127.600 106.400 C 127.600 106.628,126.408 106.800,124.824 106.800 C 123.297 106.800,121.936 106.980,121.800 107.200 C 121.664 107.420,120.843 107.600,119.976 107.600 C 119.109 107.600,118.400 107.780,118.400 108.000 C 118.400 108.220,117.596 108.400,116.614 108.400 C 115.632 108.400,114.057 108.649,113.114 108.954 C 112.171 109.258,110.545 109.748,109.500 110.041 C 108.455 110.335,107.600 110.715,107.600 110.887 C 107.600 111.059,107.060 111.200,106.400 111.200 C 105.740 111.200,105.200 111.380,105.200 111.600 C 105.200 111.820,104.921 112.000,104.581 112.000 C 104.240 112.000,103.216 112.360,102.306 112.800 C 101.395 113.240,100.414 113.600,100.125 113.600 C 99.836 113.600,99.600 113.780,99.600 114.000 C 99.600 114.220,99.240 114.400,98.800 114.400 C 98.360 114.400,98.000 114.580,98.000 114.800 C 98.000 115.020,97.640 115.200,97.200 115.200 C 96.760 115.200,96.400 115.346,96.400 115.525 C 96.400 115.704,95.770 116.098,95.000 116.400 C 94.230 116.702,93.600 117.096,93.600 117.275 C 93.600 117.454,93.330 117.600,93.000 117.600 C 92.670 117.600,92.400 117.780,92.400 118.000 C 92.400 118.220,92.130 118.400,91.800 118.400 C 91.470 118.400,91.200 118.580,91.200 118.800 C 91.200 119.020,90.906 119.200,90.547 119.200 C 90.188 119.200,89.603 119.516,89.247 119.903 C 88.891 120.289,88.105 120.860,87.500 121.170 C 86.895 121.481,86.400 121.885,86.400 122.068 C 86.400 122.250,86.157 122.400,85.859 122.400 C 85.562 122.400,84.790 122.905,84.144 123.522 C 83.498 124.140,82.145 125.213,81.136 125.906 C 80.128 126.600,78.334 128.185,77.151 129.428 C 75.968 130.670,73.695 133.015,72.100 134.637 C 70.505 136.260,69.200 137.776,69.200 138.007 C 69.200 138.238,68.586 139.040,67.836 139.791 C 67.086 140.541,66.147 141.705,65.750 142.377 C 65.353 143.050,64.886 143.600,64.714 143.600 C 64.541 143.600,64.400 143.788,64.400 144.017 C 64.400 144.246,64.040 144.820,63.600 145.292 C 63.160 145.764,62.800 146.387,62.800 146.675 C 62.800 146.964,62.620 147.200,62.400 147.200 C 62.180 147.200,62.000 147.560,62.000 148.000 C 62.000 148.440,61.857 148.800,61.681 148.800 C 61.250 148.800,58.400 154.461,58.400 155.318 C 58.400 155.693,58.220 156.000,58.000 156.000 C 57.780 156.000,57.600 156.360,57.600 156.800 C 57.600 157.240,57.420 157.600,57.200 157.600 C 56.980 157.600,56.800 157.960,56.800 158.400 C 56.800 158.840,56.620 159.200,56.400 159.200 C 56.180 159.200,56.000 159.650,56.000 160.200 C 56.000 160.750,55.820 161.200,55.600 161.200 C 55.380 161.200,55.200 161.740,55.200 162.400 C 55.200 163.060,55.020 163.600,54.800 163.600 C 54.580 163.600,54.400 163.834,54.400 164.120 C 54.400 165.183,53.377 166.794,52.700 166.797 C 52.315 166.799,52.000 166.980,52.000 167.200 C 52.000 167.420,51.640 167.600,51.200 167.600 C 50.760 167.600,50.400 167.780,50.400 168.000 C 50.400 168.220,49.860 168.400,49.200 168.400 C 48.540 168.400,48.000 168.580,48.000 168.800 C 48.000 169.020,47.640 169.200,47.200 169.200 C 46.760 169.200,46.400 169.380,46.400 169.600 C 46.400 169.820,46.040 170.000,45.600 170.000 C 45.160 170.000,44.800 170.146,44.800 170.325 C 44.800 170.504,44.170 170.898,43.400 171.200 C 42.630 171.502,42.000 171.896,42.000 172.075 C 42.000 172.254,41.680 172.400,41.288 172.400 C 40.897 172.400,40.317 172.760,40.000 173.200 C 39.683 173.640,39.103 174.000,38.712 174.000 C 38.320 174.000,38.000 174.180,38.000 174.400 C 38.000 174.620,37.717 174.800,37.371 174.800 C 37.026 174.800,36.492 175.025,36.185 175.300 C 35.188 176.194,34.619 176.590,33.500 177.168 C 32.895 177.480,32.400 177.885,32.400 178.068 C 32.400 178.250,32.165 178.400,31.878 178.400 C 30.969 178.400,19.200 189.553,19.200 190.414 C 19.200 190.657,18.300 191.675,17.200 192.676 C 16.100 193.677,15.200 194.705,15.200 194.960 C 15.200 195.215,14.840 195.683,14.400 196.000 C 13.960 196.317,13.600 196.831,13.600 197.141 C 13.600 197.452,13.272 197.997,12.872 198.353 C 12.471 198.709,11.706 199.810,11.172 200.800 C 10.637 201.790,10.065 202.660,9.900 202.733 C 9.735 202.807,9.600 203.135,9.600 203.462 C 9.600 203.789,9.330 204.327,9.000 204.657 C 8.670 204.987,8.400 205.604,8.400 206.029 C 8.400 206.453,8.220 206.800,8.000 206.800 C 7.780 206.800,7.600 207.149,7.600 207.576 C 7.600 208.003,7.420 208.464,7.200 208.600 C 6.980 208.736,6.800 209.197,6.800 209.624 C 6.800 210.051,6.620 210.400,6.400 210.400 C 6.180 210.400,6.000 210.760,6.000 211.200 C 6.000 211.640,5.820 212.000,5.600 212.000 C 5.380 212.000,5.200 212.450,5.200 213.000 C 5.200 213.550,5.020 214.000,4.800 214.000 C 4.580 214.000,4.400 214.450,4.400 215.000 C 4.400 215.550,4.220 216.000,4.000 216.000 C 3.780 216.000,3.600 216.540,3.600 217.200 C 3.600 217.860,3.420 218.400,3.200 218.400 C 2.980 218.400,2.800 218.929,2.800 219.576 C 2.800 220.223,2.620 220.864,2.400 221.000 C 2.180 221.136,2.000 221.867,2.000 222.624 C 2.000 223.381,1.820 224.000,1.600 224.000 C 1.380 224.000,1.200 224.774,1.200 225.720 C 1.200 226.666,0.975 227.665,0.700 227.940 C -0.027 228.667,-0.027 259.258,0.700 259.500 C 1.010 259.603,1.200 260.416,1.200 261.633 C 1.200 262.715,1.380 263.600,1.600 263.600 C 1.820 263.600,2.000 264.219,2.000 264.976 C 2.000 265.733,2.180 266.464,2.400 266.600 C 2.620 266.736,2.800 267.377,2.800 268.024 C 2.800 268.671,2.980 269.200,3.200 269.200 C 3.420 269.200,3.600 269.740,3.600 270.400 C 3.600 271.060,3.780 271.600,4.000 271.600 C 4.220 271.600,4.400 272.050,4.400 272.600 C 4.400 273.150,4.580 273.600,4.800 273.600 C 5.020 273.600,5.200 273.960,5.200 274.400 C 5.200 274.840,5.380 275.200,5.600 275.200 C 5.820 275.200,6.000 275.639,6.000 276.176 C 6.000 276.713,6.180 277.264,6.400 277.400 C 6.620 277.536,6.800 277.997,6.800 278.424 C 6.800 278.851,6.980 279.200,7.200 279.200 C 7.420 279.200,7.600 279.560,7.600 280.000 C 7.600 280.440,7.780 280.800,8.000 280.800 C 8.220 280.800,8.400 281.079,8.400 281.420 C 8.400 282.041,9.497 284.424,9.956 284.800 C 10.342 285.117,11.627 287.330,11.871 288.100 C 11.993 288.485,12.252 288.800,12.447 288.800 C 12.641 288.800,12.800 289.054,12.800 289.364 C 12.800 289.675,13.340 290.383,14.000 290.939 C 14.660 291.494,15.200 292.158,15.200 292.414 C 15.200 292.670,15.740 293.383,16.400 294.000 C 17.060 294.617,17.600 295.314,17.600 295.549 C 17.600 296.119,28.959 307.600,29.523 307.600 C 29.765 307.600,30.414 308.050,30.964 308.600 C 31.514 309.150,32.170 309.600,32.421 309.600 C 32.673 309.600,33.383 310.140,34.000 310.800 C 34.617 311.460,35.409 312.000,35.760 312.000 C 36.112 312.000,36.400 312.180,36.400 312.400 C 36.400 312.620,36.720 312.800,37.112 312.800 C 37.503 312.800,38.083 313.160,38.400 313.600 C 38.717 314.040,39.297 314.400,39.688 314.400 C 40.080 314.400,40.400 314.580,40.400 314.800 C 40.400 315.020,40.625 315.204,40.900 315.209 C 41.175 315.214,41.850 315.570,42.400 316.000 C 42.950 316.430,43.715 316.786,44.100 316.791 C 44.485 316.796,44.800 316.980,44.800 317.200 C 44.800 317.420,45.160 317.600,45.600 317.600 C 46.040 317.600,46.400 317.780,46.400 318.000 C 46.400 318.220,46.760 318.400,47.200 318.400 C 47.640 318.400,48.000 318.580,48.000 318.800 C 48.000 319.020,48.360 319.200,48.800 319.200 C 49.240 319.200,49.600 319.380,49.600 319.600 C 49.600 319.820,50.140 320.000,50.800 320.000 C 51.460 320.000,52.000 320.180,52.000 320.400 C 52.000 320.620,52.362 320.800,52.805 320.800 C 53.248 320.800,53.968 320.980,54.405 321.200 C 54.842 321.420,55.558 321.780,55.995 322.000 C 56.432 322.220,57.321 322.400,57.971 322.400 C 58.621 322.400,59.264 322.580,59.400 322.800 C 59.536 323.020,60.166 323.200,60.800 323.200 C 61.434 323.200,62.050 323.357,62.169 323.550 C 62.288 323.742,63.334 324.011,64.493 324.146 C 65.652 324.281,67.680 324.559,69.000 324.762 C 72.217 325.259,327.783 325.259,331.000 324.762 C 332.320 324.559,334.348 324.281,335.507 324.146 C 336.666 324.011,337.712 323.742,337.831 323.550 C 337.950 323.357,338.566 323.200,339.200 323.200 C 339.834 323.200,340.464 323.020,340.600 322.800 C 340.736 322.580,341.379 322.400,342.029 322.400 C 342.679 322.400,343.568 322.220,344.005 322.000 C 344.442 321.780,345.158 321.420,345.595 321.200 C 346.032 320.980,346.752 320.800,347.195 320.800 C 347.638 320.800,348.000 320.620,348.000 320.400 C 348.000 320.180,348.540 320.000,349.200 320.000 C 349.860 320.000,350.400 319.820,350.400 319.600 C 350.400 319.380,350.760 319.200,351.200 319.200 C 351.640 319.200,352.000 319.020,352.000 318.800 C 352.000 318.580,352.360 318.400,352.800 318.400 C 353.240 318.400,353.600 318.220,353.600 318.000 C 353.600 317.780,353.960 317.600,354.400 317.600 C 354.840 317.600,355.200 317.420,355.200 317.200 C 355.200 316.980,355.515 316.796,355.900 316.791 C 356.285 316.786,357.050 316.430,357.600 316.000 C 358.150 315.570,358.825 315.214,359.100 315.209 C 359.375 315.204,359.600 315.020,359.600 314.800 C 359.600 314.580,359.920 314.400,360.312 314.400 C 360.703 314.400,361.283 314.040,361.600 313.600 C 361.917 313.160,362.497 312.800,362.888 312.800 C 363.280 312.800,363.600 312.620,363.600 312.400 C 363.600 312.180,363.888 312.000,364.240 312.000 C 364.591 312.000,365.383 311.460,366.000 310.800 C 366.617 310.140,367.327 309.600,367.579 309.600 C 367.830 309.600,368.486 309.150,369.036 308.600 C 369.586 308.050,370.235 307.600,370.477 307.600 C 371.041 307.600,382.400 296.119,382.400 295.549 C 382.400 295.314,382.940 294.617,383.600 294.000 C 384.260 293.383,384.800 292.670,384.800 292.414 C 384.800 292.158,385.340 291.494,386.000 290.939 C 386.660 290.383,387.200 289.675,387.200 289.364 C 387.200 289.054,387.359 288.800,387.553 288.800 C 387.748 288.800,388.007 288.485,388.129 288.100 C 388.373 287.330,389.658 285.117,390.044 284.800 C 390.503 284.424,391.600 282.041,391.600 281.420 C 391.600 281.079,391.780 280.800,392.000 280.800 C 392.220 280.800,392.400 280.440,392.400 280.000 C 392.400 279.560,392.580 279.200,392.800 279.200 C 393.020 279.200,393.200 278.851,393.200 278.424 C 393.200 277.997,393.380 277.536,393.600 277.400 C 393.820 277.264,394.000 276.713,394.000 276.176 C 394.000 275.639,394.180 275.200,394.400 275.200 C 394.620 275.200,394.800 274.840,394.800 274.400 C 394.800 273.960,394.980 273.600,395.200 273.600 C 395.420 273.600,395.600 273.150,395.600 272.600 C 395.600 272.050,395.780 271.600,396.000 271.600 C 396.220 271.600,396.400 271.060,396.400 270.400 C 396.400 269.740,396.580 269.200,396.800 269.200 C 397.020 269.200,397.200 268.671,397.200 268.024 C 397.200 267.377,397.380 266.736,397.600 266.600 C 397.820 266.464,398.000 265.733,398.000 264.976 C 398.000 264.219,398.180 263.600,398.400 263.600 C 398.620 263.600,398.800 262.715,398.800 261.633 C 398.800 260.416,398.990 259.603,399.300 259.500 C 399.689 259.370,399.800 255.831,399.800 243.600 C 399.800 231.369,399.689 227.830,399.300 227.700 C 399.015 227.605,398.800 226.869,398.800 225.990 C 398.800 225.142,398.620 224.336,398.400 224.200 C 398.180 224.064,398.000 223.344,398.000 222.600 C 398.000 221.856,397.820 221.136,397.600 221.000 C 397.380 220.864,397.200 220.223,397.200 219.576 C 397.200 218.929,397.020 218.400,396.800 218.400 C 396.580 218.400,396.400 218.038,396.400 217.595 C 396.400 217.152,396.220 216.432,396.000 215.995 C 395.780 215.558,395.420 214.842,395.200 214.405 C 394.980 213.968,394.800 213.248,394.800 212.805 C 394.800 212.362,394.620 212.000,394.400 212.000 C 394.180 212.000,394.000 211.640,394.000 211.200 C 394.000 210.760,393.820 210.400,393.600 210.400 C 393.380 210.400,393.200 210.040,393.200 209.600 C 393.200 209.160,393.020 208.800,392.800 208.800 C 392.580 208.800,392.400 208.528,392.400 208.195 C 392.400 207.648,392.169 207.093,391.154 205.200 C 390.977 204.870,390.354 203.655,389.769 202.500 C 389.185 201.345,388.547 200.400,388.353 200.400 C 388.159 200.400,388.000 200.106,388.000 199.747 C 388.000 199.388,387.684 198.803,387.297 198.447 C 386.911 198.091,386.340 197.305,386.030 196.700 C 385.719 196.095,385.315 195.600,385.132 195.600 C 384.950 195.600,384.800 195.330,384.800 195.000 C 384.800 194.670,384.650 194.400,384.468 194.400 C 384.285 194.400,383.896 193.953,383.604 193.407 C 383.311 192.860,382.741 192.308,382.336 192.180 C 381.931 192.051,381.600 191.705,381.600 191.409 C 381.600 190.529,371.547 180.629,368.396 178.406 C 367.628 177.865,366.820 177.279,366.600 177.105 C 365.376 176.137,363.097 174.800,362.671 174.800 C 362.399 174.800,361.917 174.440,361.600 174.000 C 361.283 173.560,360.703 173.200,360.312 173.200 C 359.920 173.200,359.600 173.020,359.600 172.800 C 359.600 172.580,359.240 172.400,358.800 172.400 C 358.360 172.400,358.000 172.220,358.000 172.000 C 358.000 171.780,357.730 171.600,357.400 171.600 C 357.070 171.600,356.800 171.420,356.800 171.200 C 356.800 170.980,356.440 170.800,356.000 170.800 C 355.560 170.800,355.200 170.620,355.200 170.400 C 355.200 170.180,354.840 170.000,354.400 170.000 C 353.960 170.000,353.600 169.820,353.600 169.600 C 353.600 169.380,353.251 169.200,352.824 169.200 C 352.397 169.200,351.936 169.020,351.800 168.800 C 351.664 168.580,351.113 168.400,350.576 168.400 C 350.039 168.400,349.600 168.220,349.600 168.000 C 349.600 167.780,349.240 167.600,348.800 167.600 C 348.360 167.600,348.000 167.420,348.000 167.200 C 348.000 166.980,347.460 166.800,346.800 166.800 C 346.140 166.800,345.600 166.620,345.600 166.400 C 345.600 166.180,345.060 166.000,344.400 166.000 C 343.740 166.000,343.200 165.820,343.200 165.600 C 343.200 165.380,342.671 165.200,342.024 165.200 C 341.377 165.200,340.736 165.020,340.600 164.800 C 340.464 164.580,339.654 164.400,338.800 164.400 C 337.946 164.400,337.136 164.220,337.000 164.000 C 336.864 163.780,335.953 163.600,334.976 163.600 C 333.999 163.600,333.200 163.420,333.200 163.200 C 333.200 162.967,331.867 162.800,330.000 162.800 C 328.133 162.800,326.800 162.633,326.800 162.400 C 326.800 162.180,326.374 162.000,325.852 162.000 C 324.848 162.000,324.821 161.927,323.975 157.000 C 323.786 155.900,323.437 154.010,323.199 152.800 C 322.961 151.590,322.664 150.015,322.540 149.300 C 322.415 148.585,322.152 148.000,321.956 148.000 C 321.760 148.000,321.600 147.381,321.600 146.624 C 321.600 145.867,321.420 145.136,321.200 145.000 C 320.980 144.864,320.800 144.324,320.800 143.800 C 320.800 143.276,320.620 142.736,320.400 142.600 C 320.180 142.464,320.000 141.913,320.000 141.376 C 320.000 140.839,319.820 140.400,319.600 140.400 C 319.380 140.400,319.200 140.051,319.200 139.624 C 319.200 139.197,319.020 138.736,318.800 138.600 C 318.580 138.464,318.400 137.913,318.400 137.376 C 318.400 136.839,318.220 136.400,318.000 136.400 C 317.780 136.400,317.600 136.040,317.600 135.600 C 317.600 135.160,317.420 134.800,317.200 134.800 C 316.980 134.800,316.800 134.445,316.800 134.012 C 316.800 133.579,316.440 132.583,316.000 131.800 C 315.560 131.017,315.200 130.111,315.200 129.788 C 315.200 129.465,315.020 129.200,314.800 129.200 C 314.580 129.200,314.400 128.840,314.400 128.400 C 314.400 127.960,314.220 127.600,314.000 127.600 C 313.780 127.600,313.600 127.412,313.600 127.183 C 313.600 126.954,313.240 126.380,312.800 125.908 C 312.360 125.436,312.000 124.813,312.000 124.525 C 312.000 124.236,311.820 124.000,311.600 124.000 C 311.380 124.000,311.200 123.640,311.200 123.200 C 311.200 122.760,311.020 122.400,310.800 122.400 C 310.580 122.400,310.400 122.122,310.400 121.782 C 310.400 121.442,309.981 120.745,309.470 120.234 C 308.958 119.722,308.307 118.740,308.021 118.052 C 307.736 117.363,307.345 116.800,307.151 116.800 C 306.958 116.800,306.800 116.564,306.800 116.275 C 306.800 115.987,306.479 115.402,306.086 114.975 C 305.693 114.549,305.096 113.801,304.758 113.314 C 302.215 109.644,288.021 95.438,286.299 94.839 C 286.044 94.751,285.479 94.346,285.043 93.939 C 284.606 93.533,284.090 93.200,283.896 93.200 C 283.702 93.200,283.292 92.975,282.985 92.700 C 281.621 91.477,281.201 91.200,280.705 91.200 C 280.414 91.200,279.917 90.840,279.600 90.400 C 279.283 89.960,278.703 89.600,278.312 89.600 C 277.920 89.600,277.600 89.420,277.600 89.200 C 277.600 88.980,277.240 88.800,276.800 88.800 C 276.360 88.800,276.000 88.620,276.000 88.400 C 276.000 88.180,275.730 88.000,275.400 88.000 C 275.070 88.000,274.800 87.820,274.800 87.600 C 274.800 87.380,274.530 87.200,274.200 87.200 C 273.870 87.200,273.600 87.020,273.600 86.800 C 273.600 86.580,273.330 86.400,273.000 86.400 C 272.670 86.400,272.400 86.220,272.400 86.000 C 272.400 85.780,272.040 85.600,271.600 85.600 C 271.160 85.600,270.800 85.420,270.800 85.200 C 270.800 84.980,270.440 84.800,270.000 84.800 C 269.560 84.800,269.200 84.620,269.200 84.400 C 269.200 84.180,268.840 84.000,268.400 84.000 C 267.960 84.000,267.600 83.820,267.600 83.600 C 267.600 83.380,267.161 83.200,266.624 83.200 C 266.087 83.200,265.536 83.020,265.400 82.800 C 265.264 82.580,264.803 82.400,264.376 82.400 C 263.949 82.400,263.600 82.220,263.600 82.000 C 263.600 81.780,263.240 81.600,262.800 81.600 C 262.360 81.600,262.000 81.420,262.000 81.200 C 262.000 80.980,261.460 80.800,260.800 80.800 C 260.140 80.800,259.600 80.620,259.600 80.400 C 259.600 80.180,259.161 80.000,258.624 80.000 C 258.087 80.000,257.536 79.820,257.400 79.600 C 257.264 79.380,256.724 79.200,256.200 79.200 C 255.676 79.200,255.136 79.020,255.000 78.800 C 254.864 78.580,254.324 78.400,253.800 78.400 C 253.276 78.400,252.748 78.239,252.626 78.042 C 252.505 77.845,251.729 77.590,250.903 77.475 C 250.076 77.360,248.590 77.057,247.600 76.802 C 245.744 76.325,243.589 75.960,238.400 75.247 C 234.858 74.761,214.773 74.763,211.600 75.251 M230.600 86.798 C 235.968 87.186,240.218 87.755,243.000 88.460 C 243.880 88.684,245.275 89.031,246.100 89.233 C 249.152 89.980,251.021 90.500,251.800 90.819 C 252.240 91.000,253.320 91.376,254.200 91.655 C 255.080 91.935,255.971 92.307,256.180 92.482 C 256.389 92.657,256.798 92.800,257.088 92.800 C 257.379 92.800,259.139 93.520,261.000 94.400 C 262.861 95.280,264.459 96.000,264.552 96.000 C 265.008 96.000,273.393 101.108,276.232 103.115 C 289.122 112.228,300.757 126.856,306.524 141.200 C 306.922 142.190,307.417 143.313,307.624 143.695 C 307.831 144.077,308.000 144.741,308.000 145.171 C 308.000 145.601,308.180 146.064,308.400 146.200 C 308.620 146.336,308.800 146.876,308.800 147.400 C 308.800 147.924,308.959 148.451,309.154 148.571 C 309.349 148.692,309.600 149.287,309.712 149.895 C 309.824 150.503,310.213 152.170,310.577 153.600 C 312.473 161.057,312.812 163.764,313.155 174.200 C 313.512 185.058,314.220 186.592,318.842 186.522 C 322.327 186.469,323.953 184.591,324.246 180.275 C 324.631 174.625,324.547 174.800,326.872 174.800 C 327.991 174.800,329.558 174.967,330.354 175.172 C 331.149 175.376,332.880 175.760,334.200 176.025 C 348.304 178.853,365.027 189.335,373.405 200.600 C 374.060 201.480,374.698 202.290,374.824 202.400 C 375.183 202.714,377.391 206.016,378.569 208.000 C 381.314 212.625,385.090 221.336,386.025 225.200 C 386.211 225.970,386.557 227.410,386.793 228.400 C 388.674 236.278,388.701 251.054,386.850 259.000 C 384.744 268.039,378.054 282.598,374.811 285.200 C 374.674 285.310,374.136 286.030,373.617 286.800 C 372.115 289.025,363.253 297.662,360.400 299.680 C 357.235 301.920,351.905 305.195,350.000 306.070 C 345.453 308.160,343.922 308.800,343.468 308.800 C 343.189 308.800,342.789 308.951,342.580 309.137 C 341.936 309.707,335.690 311.440,330.841 312.392 C 324.985 313.544,314.098 313.633,195.600 313.508 C 62.158 313.367,71.087 313.548,62.400 310.808 C 61.850 310.635,60.590 310.261,59.600 309.977 C 58.610 309.693,57.629 309.312,57.420 309.130 C 57.211 308.949,56.802 308.800,56.512 308.800 C 56.221 308.800,54.461 308.080,52.600 307.200 C 50.739 306.320,49.136 305.600,49.038 305.600 C 48.607 305.600,41.933 301.318,39.200 299.288 C 35.982 296.898,28.516 289.627,26.582 287.000 C 25.935 286.120,25.292 285.310,25.154 285.200 C 24.349 284.557,20.413 277.957,18.595 274.200 C 13.514 263.702,11.868 256.360,11.826 244.000 C 11.799 235.820,12.341 231.118,13.947 225.600 C 14.171 224.830,14.522 223.570,14.727 222.800 C 18.421 208.886,30.650 193.328,44.800 184.540 C 47.989 182.559,54.291 179.536,57.600 178.400 C 58.370 178.136,59.360 177.771,59.800 177.590 C 60.240 177.409,61.140 177.149,61.800 177.012 C 62.460 176.876,63.720 176.582,64.600 176.360 C 67.441 175.643,69.751 175.214,72.000 174.984 C 78.942 174.277,81.797 171.138,79.608 166.618 C 78.307 163.928,77.034 163.440,72.115 163.741 L 67.947 163.996 68.214 163.098 C 68.879 160.852,75.482 149.507,76.768 148.400 C 76.895 148.290,77.616 147.407,78.369 146.438 C 98.054 121.096,133.498 111.447,164.598 122.964 C 174.946 126.796,178.386 116.419,168.100 112.400 C 165.364 111.331,163.710 110.007,165.100 109.998 C 165.265 109.997,165.940 109.501,166.600 108.896 C 169.804 105.960,175.923 101.426,179.188 99.570 C 180.184 99.003,181.650 98.165,182.445 97.707 C 185.038 96.215,185.367 96.047,188.200 94.777 C 190.781 93.620,191.563 93.283,193.800 92.364 C 200.218 89.729,210.740 87.423,219.078 86.826 C 225.216 86.386,224.888 86.386,230.600 86.798 M96.876 166.410 C 92.530 169.060,94.083 175.275,99.452 176.727 C 100.523 177.016,101.686 177.405,102.036 177.590 C 103.131 178.170,106.954 178.480,108.000 178.073 C 112.914 176.163,112.669 169.547,107.613 167.644 C 101.920 165.500,98.932 165.157,96.876 166.410 M310.766 201.711 C 309.927 202.277,308.975 203.528,308.256 205.011 C 307.164 207.264,306.852 207.978,305.900 210.400 C 305.684 210.950,305.348 211.713,305.153 212.095 C 302.417 217.474,309.854 222.852,313.962 218.464 C 315.434 216.891,318.619 209.539,319.037 206.748 C 319.665 202.550,314.337 199.305,310.766 201.711 " stroke="none" fill="#050505" fill-rule="evenodd"></path><path id="path1" d="M218.600 87.635 C 213.570 87.980,209.405 88.533,206.800 89.203 C 205.810 89.457,204.324 89.760,203.497 89.875 C 202.671 89.990,201.895 90.245,201.774 90.442 C 201.652 90.639,201.034 90.800,200.400 90.800 C 199.766 90.800,199.158 90.944,199.049 91.121 C 198.940 91.297,197.928 91.693,196.800 92.000 C 195.672 92.307,194.660 92.703,194.551 92.879 C 194.442 93.056,194.020 93.200,193.614 93.200 C 193.208 93.200,192.184 93.546,191.338 93.969 C 190.492 94.392,188.058 95.575,185.929 96.597 C 182.683 98.155,172.659 104.310,172.000 105.150 C 171.890 105.290,171.170 105.889,170.400 106.481 C 164.914 110.699,164.929 110.570,169.726 112.418 C 177.272 115.325,176.221 124.562,168.357 124.452 C 167.071 124.434,165.655 124.234,165.210 124.009 C 164.764 123.784,164.042 123.420,163.605 123.200 C 163.168 122.980,162.484 122.800,162.085 122.800 C 161.686 122.800,161.189 122.651,160.980 122.470 C 160.622 122.158,159.595 121.837,155.800 120.850 C 145.922 118.280,132.529 118.096,121.600 120.381 C 120.610 120.588,119.260 120.870,118.600 121.009 C 117.940 121.147,117.040 121.406,116.600 121.585 C 116.160 121.763,114.990 122.141,114.000 122.424 C 113.010 122.707,112.029 123.088,111.820 123.270 C 111.611 123.451,111.026 123.600,110.520 123.600 C 110.014 123.600,109.600 123.780,109.600 124.000 C 109.600 124.220,109.328 124.400,108.995 124.400 C 108.390 124.400,107.887 124.603,106.000 125.607 C 105.450 125.900,104.280 126.513,103.400 126.970 C 102.520 127.426,101.710 127.890,101.600 128.001 C 101.490 128.111,100.860 128.468,100.200 128.793 C 97.805 129.975,94.290 132.401,88.614 136.792 C 87.065 137.990,79.946 145.443,78.289 147.600 C 77.360 148.810,76.465 149.860,76.300 149.933 C 76.135 150.007,76.000 150.322,76.000 150.633 C 76.000 150.945,75.820 151.200,75.600 151.200 C 75.380 151.200,75.200 151.470,75.200 151.800 C 75.200 152.130,75.050 152.400,74.868 152.400 C 74.685 152.400,74.280 152.895,73.968 153.500 C 73.656 154.105,73.301 154.690,73.179 154.800 C 72.747 155.188,69.200 162.334,69.200 162.815 C 69.200 163.179,69.909 163.234,71.979 163.030 C 77.691 162.467,80.800 164.439,80.800 168.626 C 80.800 171.481,79.131 174.400,77.498 174.400 C 77.202 174.400,76.789 174.563,76.580 174.761 C 76.371 174.960,75.390 175.225,74.400 175.350 C 70.285 175.870,67.295 176.361,65.600 176.796 C 64.610 177.050,63.213 177.355,62.496 177.473 C 61.779 177.592,61.094 177.849,60.973 178.044 C 60.852 178.240,60.401 178.400,59.971 178.400 C 59.541 178.400,58.877 178.566,58.495 178.768 C 58.113 178.970,56.720 179.543,55.400 180.040 C 51.445 181.530,41.878 186.749,40.800 188.005 C 40.690 188.134,39.983 188.670,39.229 189.197 C 35.014 192.144,28.045 199.390,24.832 204.166 C 24.079 205.285,23.314 206.260,23.132 206.333 C 22.949 206.407,22.800 206.635,22.800 206.841 C 22.800 207.046,22.122 208.336,21.294 209.707 C 19.597 212.515,16.800 218.489,16.800 219.304 C 16.800 219.599,16.651 220.011,16.470 220.220 C 16.288 220.429,15.907 221.410,15.623 222.400 C 15.339 223.390,14.961 224.650,14.783 225.200 C 14.605 225.750,14.249 227.190,13.993 228.400 C 13.737 229.610,13.372 231.230,13.182 232.000 C 11.364 239.373,12.204 252.988,15.133 263.600 C 16.447 268.359,19.945 276.112,22.475 279.872 C 23.094 280.792,23.600 281.737,23.600 281.972 C 23.600 282.207,23.741 282.400,23.914 282.400 C 24.086 282.400,24.543 282.933,24.928 283.585 C 25.313 284.237,25.847 285.002,26.114 285.285 C 26.381 285.568,27.106 286.477,27.724 287.305 C 30.219 290.645,38.195 298.089,41.149 299.833 C 41.837 300.240,42.400 300.714,42.400 300.886 C 42.400 301.059,42.597 301.200,42.838 301.200 C 43.079 301.200,43.754 301.539,44.338 301.953 C 44.922 302.367,46.075 303.087,46.900 303.553 C 47.725 304.019,49.035 304.760,49.812 305.200 C 50.589 305.640,51.489 306.000,51.812 306.000 C 52.135 306.000,52.400 306.180,52.400 306.400 C 52.400 306.620,52.672 306.800,53.005 306.800 C 53.338 306.800,53.923 306.959,54.305 307.153 C 54.687 307.348,55.540 307.729,56.200 308.000 C 56.860 308.271,57.713 308.652,58.095 308.847 C 58.477 309.041,59.141 309.200,59.571 309.200 C 60.001 309.200,60.452 309.360,60.573 309.556 C 60.694 309.751,61.379 310.008,62.096 310.127 C 62.813 310.245,64.210 310.549,65.200 310.802 C 72.604 312.691,74.596 312.720,199.800 312.730 C 324.442 312.741,327.787 312.694,335.000 310.846 C 335.880 310.620,337.140 310.324,337.800 310.188 C 338.982 309.943,340.333 309.446,341.695 308.753 C 342.077 308.559,342.664 308.400,343.000 308.400 C 343.336 308.400,343.923 308.238,344.305 308.041 C 344.687 307.843,346.620 306.901,348.600 305.947 C 358.233 301.306,368.923 292.657,373.692 285.646 C 374.382 284.631,375.075 283.710,375.232 283.600 C 376.291 282.855,381.480 273.234,383.198 268.827 C 390.670 249.668,388.765 225.639,378.456 209.000 C 376.794 206.319,375.414 204.211,375.182 204.000 C 375.061 203.890,374.523 203.170,373.988 202.400 C 366.117 191.081,351.611 181.353,336.500 177.260 C 332.930 176.293,331.744 176.030,330.000 175.814 C 329.010 175.692,327.525 175.484,326.700 175.352 L 325.200 175.112 325.200 178.228 C 325.200 184.640,321.578 188.598,317.115 187.064 C 313.178 185.710,312.684 184.301,312.328 173.400 C 312.012 163.718,311.553 159.814,310.000 153.600 C 309.753 152.610,309.451 151.303,309.329 150.695 C 309.207 150.087,308.949 149.492,308.754 149.371 C 308.559 149.251,308.400 148.724,308.400 148.200 C 308.400 147.676,308.220 147.136,308.000 147.000 C 307.780 146.864,307.600 146.401,307.600 145.971 C 307.600 145.541,307.441 144.877,307.247 144.495 C 307.052 144.113,306.711 143.350,306.487 142.800 C 303.919 136.471,301.262 131.468,297.460 125.800 C 296.132 123.820,294.620 121.750,294.100 121.200 C 293.580 120.650,292.866 119.723,292.514 119.139 C 288.945 113.226,272.115 100.037,263.000 96.008 C 261.900 95.522,260.100 94.706,259.000 94.196 C 257.900 93.685,256.280 93.035,255.400 92.752 C 254.520 92.468,253.629 92.093,253.420 91.918 C 253.211 91.743,252.637 91.600,252.144 91.600 C 251.651 91.600,251.136 91.420,251.000 91.200 C 250.864 90.980,250.234 90.800,249.600 90.800 C 248.966 90.800,248.336 90.620,248.200 90.400 C 248.064 90.180,247.344 90.000,246.600 90.000 C 245.856 90.000,245.148 89.839,245.026 89.642 C 244.808 89.290,243.949 89.124,238.800 88.441 C 237.370 88.252,235.930 88.000,235.600 87.881 C 234.516 87.493,223.092 87.327,218.600 87.635 M104.971 166.100 C 108.125 167.122,109.305 167.721,110.491 168.900 C 114.861 173.244,109.676 181.087,103.919 178.842 C 103.413 178.645,102.190 178.264,101.200 177.996 C 93.864 176.010,91.506 171.478,95.400 166.849 C 97.372 164.505,99.528 164.336,104.971 166.100 M316.818 201.075 C 319.102 202.423,320.651 207.463,319.261 209.020 C 319.074 209.229,318.161 211.318,317.232 213.662 C 314.787 219.830,312.694 221.557,308.848 220.581 C 304.900 219.578,302.632 214.451,304.787 211.400 C 304.942 211.180,305.487 209.920,305.997 208.600 C 306.507 207.280,307.077 206.029,307.262 205.820 C 307.448 205.611,307.600 205.148,307.600 204.792 C 307.600 201.512,313.518 199.126,316.818 201.075 " stroke="none" fill="#e7e7e7" fill-rule="evenodd"></path><path id="path2" d="M286.200 112.000 C 287.059 112.880,287.852 113.600,287.962 113.600 C 288.072 113.600,287.459 112.880,286.600 112.000 C 285.741 111.120,284.948 110.400,284.838 110.400 C 284.728 110.400,285.341 111.120,286.200 112.000 M136.300 118.282 C 136.795 118.378,137.605 118.378,138.100 118.282 C 138.595 118.187,138.190 118.109,137.200 118.109 C 136.210 118.109,135.805 118.187,136.300 118.282 M80.575 144.100 L 79.400 145.400 80.700 144.225 C 81.912 143.130,82.184 142.800,81.875 142.800 C 81.806 142.800,81.221 143.385,80.575 144.100 M11.734 243.600 C 11.734 245.250,11.805 245.925,11.891 245.100 C 11.978 244.275,11.978 242.925,11.891 242.100 C 11.805 241.275,11.734 241.950,11.734 243.600 " stroke="none" fill="#747474" fill-rule="evenodd"></path><path id="path3" d="M219.600 87.173 C 217.913 87.301,220.276 87.406,225.000 87.411 C 230.945 87.419,232.406 87.342,230.000 87.150 C 226.131 86.842,223.877 86.847,219.600 87.173 M212.200 88.000 C 211.122 88.274,211.102 88.306,212.000 88.313 C 212.550 88.317,213.450 88.176,214.000 88.000 C 215.344 87.569,213.892 87.569,212.200 88.000 M236.200 88.000 C 236.640 88.189,237.540 88.335,238.200 88.325 L 239.400 88.305 238.200 88.000 C 237.540 87.832,236.640 87.686,236.200 87.675 L 235.400 87.656 236.200 88.000 M241.600 88.800 C 241.930 89.013,242.560 89.178,243.000 89.166 L 243.800 89.144 243.000 88.800 C 241.804 88.286,240.805 88.286,241.600 88.800 M203.800 89.600 L 203.000 89.944 203.800 89.966 C 204.240 89.978,204.870 89.813,205.200 89.600 C 205.995 89.086,204.996 89.086,203.800 89.600 M245.000 89.600 C 245.136 89.820,245.642 89.987,246.124 89.972 C 246.969 89.945,246.971 89.931,246.200 89.600 C 245.099 89.127,244.708 89.127,245.000 89.600 M200.600 90.400 C 199.829 90.731,199.831 90.745,200.676 90.772 C 201.158 90.787,201.664 90.620,201.800 90.400 C 202.092 89.927,201.701 89.927,200.600 90.400 M248.200 90.400 C 248.336 90.620,248.842 90.787,249.324 90.772 C 250.169 90.745,250.171 90.731,249.400 90.400 C 248.299 89.927,247.908 89.927,248.200 90.400 M189.000 94.778 C 188.120 95.195,187.513 95.550,187.651 95.568 C 188.040 95.618,190.800 94.414,190.800 94.195 C 190.800 93.927,190.799 93.927,189.000 94.778 M259.200 94.189 C 259.200 94.506,262.100 95.633,262.328 95.405 C 262.441 95.292,262.435 95.200,262.316 95.200 C 262.196 95.200,261.446 94.928,260.649 94.595 C 259.852 94.262,259.200 94.079,259.200 94.189 M177.069 101.237 C 176.042 101.918,175.091 102.653,174.956 102.871 C 174.822 103.089,175.721 102.596,176.956 101.777 C 178.957 100.448,179.490 100.000,179.069 100.000 C 178.996 100.000,178.097 100.557,177.069 101.237 M270.800 100.100 C 270.910 100.224,271.988 100.989,273.196 101.800 C 274.404 102.611,275.083 102.934,274.705 102.517 C 274.328 102.099,273.250 101.334,272.309 100.816 C 271.369 100.299,270.690 99.976,270.800 100.100 M168.575 107.700 L 167.400 109.000 168.700 107.825 C 169.912 106.730,170.184 106.400,169.875 106.400 C 169.806 106.400,169.221 106.985,168.575 107.700 M282.800 108.827 C 282.800 108.944,284.780 111.020,287.200 113.440 C 289.620 115.860,291.600 117.738,291.600 117.613 C 291.600 117.488,289.620 115.412,287.200 113.000 C 284.780 110.588,282.800 108.710,282.800 108.827 M165.829 109.968 C 165.164 110.703,165.175 110.756,166.067 111.190 C 166.920 111.605,166.938 111.594,166.277 111.061 C 165.586 110.504,165.595 110.449,166.466 109.839 C 166.968 109.488,167.186 109.200,166.951 109.200 C 166.716 109.200,166.211 109.546,165.829 109.968 M172.809 114.137 C 172.804 114.322,173.160 114.931,173.600 115.491 C 174.040 116.050,174.396 116.349,174.391 116.154 C 174.379 115.687,172.820 113.700,172.809 114.137 M134.082 118.696 C 135.558 118.773,138.078 118.773,139.682 118.697 C 141.287 118.621,140.080 118.558,137.000 118.558 C 133.920 118.557,132.607 118.619,134.082 118.696 M292.756 119.400 C 294.149 121.410,294.784 122.150,294.963 121.970 C 295.057 121.876,294.412 120.989,293.530 120.000 C 292.647 119.010,292.299 118.740,292.756 119.400 M126.000 119.221 C 125.352 119.442,125.845 119.480,127.400 119.331 C 128.720 119.204,129.875 119.032,129.967 118.950 C 130.290 118.659,126.986 118.884,126.000 119.221 M146.200 119.223 C 147.080 119.405,148.250 119.543,148.800 119.530 C 150.388 119.491,147.765 118.895,146.000 118.893 L 144.600 118.892 146.200 119.223 M121.800 120.000 L 121.000 120.344 121.800 120.344 C 122.240 120.344,122.960 120.189,123.400 120.000 L 124.200 119.656 123.400 119.656 C 122.960 119.656,122.240 119.811,121.800 120.000 M152.200 120.000 C 152.640 120.189,153.270 120.344,153.600 120.344 C 153.978 120.344,153.904 120.217,153.400 120.000 C 152.960 119.811,152.330 119.656,152.000 119.656 C 151.622 119.656,151.696 119.783,152.200 120.000 M118.400 120.800 C 117.867 121.145,117.867 121.188,118.400 121.188 C 118.730 121.188,119.270 121.013,119.600 120.800 C 120.133 120.455,120.133 120.412,119.600 120.412 C 119.270 120.412,118.730 120.587,118.400 120.800 M171.400 123.627 C 170.055 124.489,170.239 124.638,171.781 123.936 C 172.342 123.680,172.800 123.320,172.800 123.136 C 172.800 122.718,172.843 122.703,171.400 123.627 M104.700 125.829 C 104.095 126.157,103.600 126.510,103.600 126.613 C 103.600 126.999,104.232 126.757,105.200 126.000 C 106.389 125.070,106.211 125.009,104.700 125.829 M100.200 128.437 C 99.540 128.895,99.270 129.164,99.600 129.035 C 99.930 128.906,100.515 128.689,100.900 128.554 C 101.285 128.418,101.600 128.148,101.600 127.953 C 101.600 127.476,101.572 127.486,100.200 128.437 M96.487 130.579 C 93.942 132.255,89.600 135.573,89.600 135.841 C 89.600 135.948,90.995 134.983,92.700 133.695 C 94.405 132.408,96.475 130.945,97.300 130.445 C 98.586 129.664,99.105 129.200,98.691 129.200 C 98.631 129.200,97.639 129.821,96.487 130.579 M301.206 131.650 C 301.197 132.005,303.233 135.600,303.442 135.600 C 303.538 135.600,303.260 134.925,302.824 134.100 C 301.878 132.311,301.215 131.306,301.206 131.650 M88.229 136.629 C 87.805 136.938,87.536 137.269,87.630 137.363 C 87.724 137.457,88.148 137.281,88.571 136.971 C 88.995 136.662,89.264 136.331,89.170 136.237 C 89.076 136.143,88.652 136.319,88.229 136.629 M86.070 138.526 C 85.591 139.035,85.200 139.588,85.200 139.754 C 85.200 140.069,85.803 139.502,86.749 138.298 C 87.543 137.289,87.089 137.440,86.070 138.526 M81.096 143.809 C 78.311 146.876,75.880 150.000,76.280 150.000 C 76.471 150.000,76.929 149.490,77.297 148.867 C 77.665 148.244,79.167 146.437,80.635 144.852 C 82.102 143.267,83.235 141.912,83.151 141.841 C 83.068 141.771,82.143 142.656,81.096 143.809 M310.006 153.833 C 310.009 154.255,310.195 154.870,310.418 155.200 C 310.715 155.638,310.752 155.476,310.556 154.600 C 310.227 153.129,309.998 152.810,310.006 153.833 M70.580 158.840 C 70.011 159.962,69.613 160.947,69.695 161.029 C 69.777 161.111,70.327 160.193,70.918 158.989 C 71.508 157.785,71.906 156.800,71.802 156.800 C 71.698 156.800,71.148 157.718,70.580 158.840 M310.834 157.800 C 310.822 158.240,310.987 158.870,311.200 159.200 C 311.714 159.995,311.714 158.996,311.200 157.800 L 310.856 157.000 310.834 157.800 M311.686 162.400 C 311.683 163.170,311.824 164.250,312.000 164.800 C 312.450 166.204,312.465 164.737,312.023 162.600 L 311.692 161.000 311.686 162.400 M69.067 161.867 C 68.417 162.517,68.823 163.599,69.700 163.554 C 70.433 163.516,70.463 163.472,69.863 163.317 C 69.368 163.189,69.191 162.876,69.325 162.364 C 69.539 161.545,69.488 161.446,69.067 161.867 M73.305 163.087 C 73.914 163.179,74.814 163.177,75.305 163.082 C 75.797 162.987,75.300 162.911,74.200 162.914 C 73.100 162.917,72.697 162.995,73.305 163.087 M79.420 165.478 C 80.495 167.184,80.674 170.002,79.846 172.200 C 79.661 172.690,79.782 172.613,80.158 172.000 C 81.281 170.170,80.995 166.791,79.581 165.185 L 78.362 163.800 79.420 165.478 M97.600 165.248 C 96.486 165.691,94.400 167.554,94.400 168.106 C 94.400 168.301,94.856 167.920,95.413 167.257 C 96.696 165.732,98.735 165.053,101.130 165.351 C 102.412 165.511,102.748 165.470,102.200 165.220 C 101.142 164.739,98.847 164.753,97.600 165.248 M110.530 169.200 C 111.074 169.970,111.606 170.960,111.713 171.400 C 111.904 172.188,111.908 172.187,111.954 171.385 C 111.979 170.937,111.447 169.947,110.771 169.185 L 109.542 167.800 110.530 169.200 M312.488 174.800 C 312.471 178.430,312.579 181.708,312.728 182.085 C 312.878 182.462,312.949 179.942,312.886 176.485 C 312.727 167.759,312.526 166.906,312.488 174.800 M93.867 169.067 C 93.508 169.426,93.538 172.483,93.906 173.062 C 94.068 173.316,94.200 172.461,94.200 171.162 C 94.200 169.863,94.185 168.800,94.167 168.800 C 94.148 168.800,94.013 168.920,93.867 169.067 M111.654 174.476 C 111.625 175.068,111.420 175.664,111.200 175.800 C 110.980 175.936,110.800 176.257,110.800 176.513 C 110.800 176.769,111.082 176.575,111.427 176.083 C 111.772 175.590,111.976 174.785,111.881 174.294 C 111.732 173.519,111.702 173.543,111.654 174.476 M75.400 174.800 C 74.629 175.131,74.631 175.145,75.476 175.172 C 75.958 175.187,76.464 175.020,76.600 174.800 C 76.892 174.327,76.501 174.327,75.400 174.800 M325.009 175.300 C 324.763 176.046,324.568 182.766,324.800 182.535 C 325.009 182.327,325.484 174.798,325.287 174.799 C 325.226 174.800,325.100 175.025,325.009 175.300 M70.000 175.600 L 68.600 175.895 70.200 175.941 C 71.080 175.967,72.070 175.813,72.400 175.600 C 73.124 175.132,72.223 175.132,70.000 175.600 M328.200 175.580 C 328.961 175.926,331.917 176.164,331.567 175.851 C 331.475 175.769,330.500 175.593,329.400 175.459 C 328.054 175.295,327.661 175.335,328.200 175.580 M66.000 176.400 C 65.176 176.664,65.141 176.726,65.800 176.754 C 66.240 176.773,66.870 176.613,67.200 176.400 C 67.901 175.947,67.414 175.947,66.000 176.400 M333.200 176.382 C 333.530 176.605,334.145 176.791,334.567 176.794 C 335.590 176.802,335.271 176.573,333.800 176.244 C 332.924 176.048,332.762 176.085,333.200 176.382 M62.800 177.200 C 61.976 177.464,61.941 177.526,62.600 177.554 C 63.040 177.573,63.670 177.413,64.000 177.200 C 64.701 176.747,64.214 176.747,62.800 177.200 M336.400 177.182 C 336.730 177.405,337.345 177.591,337.767 177.594 C 338.790 177.602,338.471 177.373,337.000 177.044 C 336.124 176.848,335.962 176.885,336.400 177.182 M59.800 178.000 C 59.029 178.331,59.031 178.345,59.876 178.372 C 60.358 178.387,60.864 178.220,61.000 178.000 C 61.292 177.527,60.901 177.527,59.800 178.000 M101.200 177.982 C 101.530 178.205,102.145 178.391,102.567 178.394 C 103.590 178.402,103.271 178.173,101.800 177.844 C 100.924 177.648,100.762 177.685,101.200 177.982 M55.683 179.469 C 54.298 180.035,53.238 180.571,53.326 180.659 C 53.414 180.748,54.337 180.456,55.377 180.010 C 56.416 179.565,57.511 179.200,57.810 179.200 C 58.108 179.200,58.464 179.020,58.600 178.800 C 58.962 178.214,58.481 178.324,55.683 179.469 M104.138 178.894 C 104.392 179.056,105.230 179.188,106.000 179.188 C 106.770 179.188,107.608 179.056,107.862 178.894 C 108.116 178.732,107.278 178.600,106.000 178.600 C 104.722 178.600,103.884 178.732,104.138 178.894 M48.898 182.658 C 46.923 183.679,44.878 184.871,44.354 185.305 L 43.400 186.095 44.469 185.459 C 45.057 185.109,47.127 183.992,49.069 182.976 C 51.011 181.961,52.675 181.056,52.767 180.965 C 53.236 180.500,52.150 180.975,48.898 182.658 M349.200 181.784 C 349.200 181.894,349.920 182.351,350.800 182.800 C 351.680 183.249,352.400 183.526,352.400 183.416 C 352.400 183.306,351.680 182.849,350.800 182.400 C 349.920 181.951,349.200 181.674,349.200 181.784 M313.499 184.205 C 313.977 185.094,315.941 187.030,316.098 186.768 C 316.154 186.676,315.496 185.882,314.635 185.005 C 313.775 184.128,313.263 183.768,313.499 184.205 M317.762 187.283 C 318.172 187.512,318.850 187.514,319.515 187.289 C 320.499 186.955,320.437 186.920,318.847 186.915 C 317.553 186.911,317.269 187.007,317.762 187.283 M39.829 188.229 C 39.405 188.538,39.136 188.869,39.230 188.963 C 39.324 189.057,39.748 188.881,40.171 188.571 C 40.595 188.262,40.864 187.931,40.770 187.837 C 40.676 187.743,40.252 187.919,39.829 188.229 M35.867 191.467 C 35.025 192.238,34.397 192.931,34.472 193.005 C 34.547 193.080,35.306 192.520,36.160 191.760 C 37.014 191.000,37.641 190.308,37.555 190.221 C 37.468 190.135,36.709 190.695,35.867 191.467 M364.679 192.338 C 365.956 193.404,367.781 195.128,368.736 196.169 C 369.691 197.209,370.551 197.983,370.646 197.887 C 370.889 197.645,363.262 190.400,362.764 190.400 C 362.541 190.400,363.403 191.272,364.679 192.338 M31.390 195.610 C 30.089 196.925,29.158 198.000,29.321 198.000 C 29.724 198.000,34.117 193.583,33.915 193.381 C 33.827 193.293,32.690 194.296,31.390 195.610 M371.634 199.447 C 372.165 200.133,372.680 200.623,372.779 200.535 C 372.877 200.447,372.443 199.886,371.813 199.288 L 370.669 198.200 371.634 199.447 M313.600 200.400 C 314.150 200.576,314.960 200.720,315.400 200.720 C 316.033 200.720,315.992 200.654,315.200 200.400 C 314.650 200.224,313.840 200.080,313.400 200.080 C 312.767 200.080,312.808 200.146,313.600 200.400 M309.876 201.700 C 309.154 202.415,309.021 202.605,309.581 202.123 C 310.142 201.641,311.050 201.067,311.600 200.848 C 312.308 200.567,312.394 200.443,311.894 200.425 C 311.506 200.411,310.598 200.985,309.876 201.700 M374.037 202.400 C 375.196 204.196,375.200 204.201,375.198 203.767 C 375.197 203.565,374.732 202.860,374.165 202.200 L 373.134 201.000 374.037 202.400 M25.315 202.900 C 23.421 205.376,22.758 206.399,23.053 206.393 C 23.382 206.386,26.177 202.400,25.852 202.400 C 25.767 202.400,25.526 202.625,25.315 202.900 M318.484 203.003 C 318.640 203.245,318.944 203.883,319.159 204.422 C 319.406 205.040,319.559 205.159,319.575 204.744 C 319.589 204.384,319.285 203.745,318.900 203.325 C 318.515 202.906,318.328 202.760,318.484 203.003 M377.800 208.000 C 378.141 208.660,378.511 209.200,378.621 209.200 C 378.731 209.200,378.541 208.660,378.200 208.000 C 377.859 207.340,377.489 206.800,377.379 206.800 C 377.269 206.800,377.459 207.340,377.800 208.000 M21.108 209.300 C 20.787 209.795,20.307 210.650,20.040 211.200 C 19.360 212.603,20.594 211.106,21.441 209.500 C 22.139 208.174,21.923 208.044,21.108 209.300 M18.672 213.819 C 17.732 215.789,17.864 216.124,18.847 214.262 C 19.293 213.416,19.587 212.654,19.501 212.567 C 19.414 212.481,19.041 213.044,18.672 213.819 M304.093 214.800 C 304.093 215.570,304.175 215.885,304.276 215.500 C 304.376 215.115,304.376 214.485,304.276 214.100 C 304.175 213.715,304.093 214.030,304.093 214.800 M17.005 217.449 C 16.672 218.246,16.400 219.110,16.400 219.369 C 16.400 219.628,16.251 220.011,16.070 220.220 C 15.888 220.429,15.507 221.410,15.223 222.400 C 14.939 223.390,14.559 224.650,14.379 225.200 C 14.198 225.750,13.951 226.830,13.830 227.600 C 13.575 229.216,13.946 228.297,14.798 225.200 C 15.364 223.141,15.937 221.358,16.403 220.200 C 17.375 217.789,17.971 216.000,17.802 216.000 C 17.697 216.000,17.338 216.652,17.005 217.449 M304.415 216.800 C 304.421 217.130,304.690 217.749,305.013 218.176 C 305.768 219.175,305.763 218.805,305.002 217.346 C 304.674 216.716,304.410 216.470,304.415 216.800 M309.200 220.553 C 309.200 220.910,310.675 221.052,311.406 220.766 C 312.011 220.530,311.843 220.450,310.700 220.428 C 309.875 220.413,309.200 220.469,309.200 220.553 M386.262 229.000 C 386.396 229.880,386.572 230.675,386.653 230.767 C 386.956 231.110,386.729 228.968,386.381 228.200 C 386.129 227.642,386.093 227.885,386.262 229.000 M13.254 229.800 C 13.219 230.240,13.089 231.050,12.967 231.600 C 12.775 232.463,12.807 232.503,13.198 231.890 C 13.447 231.499,13.577 230.689,13.486 230.090 C 13.378 229.379,13.297 229.279,13.254 229.800 M12.230 236.734 C 12.068 238.788,12.022 240.555,12.129 240.662 C 12.392 240.925,12.937 234.207,12.707 233.534 C 12.607 233.240,12.393 234.680,12.230 236.734 M387.309 234.800 C 387.309 235.790,387.387 236.195,387.482 235.700 C 387.578 235.205,387.578 234.395,387.482 233.900 C 387.387 233.405,387.309 233.810,387.309 234.800 M387.709 238.400 C 387.709 239.390,387.787 239.795,387.882 239.300 C 387.978 238.805,387.978 237.995,387.882 237.500 C 387.787 237.005,387.709 237.410,387.709 238.400 M388.101 243.800 C 388.105 244.680,388.187 244.993,388.283 244.495 C 388.379 243.998,388.375 243.278,388.275 242.895 C 388.175 242.513,388.096 242.920,388.101 243.800 M12.090 248.000 C 12.084 248.990,12.216 250.790,12.383 252.000 L 12.687 254.200 12.714 252.000 C 12.729 250.790,12.597 248.990,12.420 248.000 L 12.100 246.200 12.090 248.000 M387.714 249.000 C 387.717 250.100,387.795 250.503,387.887 249.895 C 387.979 249.286,387.977 248.386,387.882 247.895 C 387.787 247.403,387.711 247.900,387.714 249.000 M387.309 252.800 C 387.309 253.790,387.387 254.195,387.482 253.700 C 387.578 253.205,387.578 252.395,387.482 251.900 C 387.387 251.405,387.309 251.810,387.309 252.800 M13.059 256.200 C 13.193 257.300,13.369 258.275,13.451 258.367 C 13.764 258.717,13.526 255.761,13.180 255.000 C 12.935 254.461,12.895 254.854,13.059 256.200 M13.646 259.200 C 13.665 259.530,13.824 260.250,14.000 260.800 L 14.320 261.800 14.354 260.800 C 14.373 260.250,14.213 259.530,14.000 259.200 C 13.655 258.667,13.616 258.667,13.646 259.200 M385.450 261.650 C 385.309 262.353,385.269 263.002,385.359 263.092 C 385.450 263.183,385.648 262.691,385.800 262.000 C 385.952 261.309,385.993 260.659,385.891 260.558 C 385.789 260.456,385.591 260.947,385.450 261.650 M14.602 263.001 C 14.748 263.660,15.140 264.920,15.472 265.800 C 15.804 266.680,16.346 268.210,16.677 269.200 C 17.008 270.190,17.445 271.176,17.650 271.390 C 17.854 271.605,17.458 270.255,16.770 268.390 C 16.082 266.526,15.373 264.401,15.195 263.668 C 14.786 261.991,14.241 261.378,14.602 263.001 M18.807 273.713 C 18.795 274.232,20.840 278.093,21.028 277.905 C 21.124 277.810,20.665 276.757,20.008 275.566 C 19.352 274.375,18.811 273.541,18.807 273.713 M377.800 279.600 C 377.459 280.260,377.269 280.800,377.379 280.800 C 377.489 280.800,377.859 280.260,378.200 279.600 C 378.541 278.940,378.731 278.400,378.621 278.400 C 378.511 278.400,378.141 278.940,377.800 279.600 M22.018 279.800 C 22.018 280.020,22.370 280.650,22.800 281.200 C 23.230 281.750,23.582 282.020,23.582 281.800 C 23.582 281.580,23.230 280.950,22.800 280.400 C 22.370 279.850,22.018 279.580,22.018 279.800 M24.627 283.800 C 26.000 285.600,26.268 285.603,25.104 283.805 C 24.607 283.038,24.056 282.408,23.880 282.405 C 23.703 282.402,24.040 283.030,24.627 283.800 M374.096 285.005 C 372.932 286.803,373.200 286.800,374.573 285.000 C 375.160 284.230,375.497 283.602,375.320 283.605 C 375.144 283.608,374.593 284.238,374.096 285.005 M27.196 287.194 C 28.977 289.443,29.513 289.641,27.923 287.463 C 27.195 286.465,26.450 285.638,26.266 285.625 C 26.083 285.611,26.501 286.318,27.196 287.194 M370.439 289.540 C 370.130 289.903,368.782 291.370,367.443 292.800 C 365.258 295.133,365.334 295.084,368.186 292.315 C 369.934 290.618,371.282 289.151,371.182 289.055 C 371.082 288.959,370.747 289.178,370.439 289.540 M29.600 289.904 C 29.600 290.082,30.590 291.205,31.800 292.400 C 33.010 293.595,34.000 294.472,34.000 294.349 C 34.000 294.225,33.010 293.102,31.800 291.853 C 30.590 290.604,29.600 289.727,29.600 289.904 M34.400 294.635 C 34.400 295.104,42.449 301.600,43.030 301.600 C 43.154 301.600,44.008 302.115,44.928 302.744 C 45.848 303.373,47.230 304.194,48.000 304.568 L 49.400 305.248 48.400 304.433 C 47.850 303.985,47.252 303.614,47.072 303.609 C 46.892 303.604,45.959 303.060,45.000 302.400 C 44.041 301.740,43.063 301.200,42.828 301.200 C 42.593 301.200,42.400 301.059,42.400 300.886 C 42.400 300.714,41.837 300.240,41.149 299.833 C 40.461 299.427,38.661 298.030,37.149 296.729 C 35.637 295.427,34.400 294.485,34.400 294.635 M361.731 297.727 C 358.935 299.987,358.599 300.421,360.898 298.803 C 362.564 297.631,364.419 295.950,363.962 296.027 C 363.873 296.042,362.869 296.807,361.731 297.727 M357.218 301.050 C 355.336 302.386,355.171 302.618,356.629 301.877 C 357.305 301.534,358.092 300.971,358.378 300.626 C 359.060 299.805,358.877 299.872,357.218 301.050 M353.700 303.246 C 352.337 304.119,351.895 304.706,353.100 304.043 C 354.018 303.539,355.456 302.427,355.200 302.419 C 355.090 302.416,354.415 302.788,353.700 303.246 M62.400 310.400 C 62.730 310.613,63.270 310.788,63.600 310.788 C 64.133 310.788,64.133 310.745,63.600 310.400 C 63.270 310.187,62.730 310.012,62.400 310.012 C 61.867 310.012,61.867 310.055,62.400 310.400 M65.400 311.200 C 66.596 311.714,67.595 311.714,66.800 311.200 C 66.470 310.987,65.840 310.822,65.400 310.834 L 64.600 310.856 65.400 311.200 M69.600 312.000 C 71.130 312.490,72.358 312.490,71.600 312.000 C 71.270 311.787,70.460 311.627,69.800 311.646 C 68.624 311.679,68.620 311.686,69.600 312.000 M329.000 312.019 C 328.442 312.271,328.685 312.307,329.800 312.138 C 330.680 312.004,331.475 311.828,331.567 311.747 C 331.910 311.444,329.768 311.671,329.000 312.019 M77.000 312.850 C 80.733 313.184,318.845 313.194,323.200 312.860 C 325.070 312.717,269.810 312.600,200.400 312.600 C 130.990 312.600,75.460 312.713,77.000 312.850 " stroke="none" fill="#939193" fill-rule="evenodd"></path><path id="path4" d="M224.100 86.687 C 224.705 86.778,225.695 86.778,226.300 86.687 C 226.905 86.595,226.410 86.520,225.200 86.520 C 223.990 86.520,223.495 86.595,224.100 86.687 M217.700 87.087 C 218.305 87.178,219.295 87.178,219.900 87.087 C 220.505 86.995,220.010 86.920,218.800 86.920 C 217.590 86.920,217.095 86.995,217.700 87.087 M230.307 87.090 C 231.026 87.179,232.106 87.177,232.707 87.086 C 233.308 86.995,232.720 86.922,231.400 86.924 C 230.080 86.926,229.588 87.001,230.307 87.090 M213.905 87.483 C 214.402 87.579,215.122 87.575,215.505 87.475 C 215.887 87.375,215.480 87.296,214.600 87.301 C 213.720 87.305,213.407 87.387,213.905 87.483 M235.105 87.483 C 235.602 87.579,236.322 87.575,236.705 87.475 C 237.087 87.375,236.680 87.296,235.800 87.301 C 234.920 87.305,234.607 87.387,235.105 87.483 M208.500 88.276 C 208.885 88.376,209.515 88.376,209.900 88.276 C 210.285 88.175,209.970 88.093,209.200 88.093 C 208.430 88.093,208.115 88.175,208.500 88.276 M239.633 88.145 C 239.725 88.225,240.601 88.392,241.579 88.518 C 242.730 88.665,243.154 88.616,242.779 88.379 C 242.245 88.040,239.258 87.819,239.633 88.145 M204.000 89.218 C 203.562 89.515,203.724 89.552,204.600 89.356 C 206.071 89.027,206.390 88.798,205.367 88.806 C 204.945 88.809,204.330 88.995,204.000 89.218 M244.033 88.944 C 244.125 89.023,244.740 89.208,245.400 89.356 C 246.276 89.552,246.438 89.515,246.000 89.218 C 245.460 88.853,243.632 88.598,244.033 88.944 M200.800 90.018 C 200.362 90.315,200.524 90.352,201.400 90.156 C 202.871 89.827,203.190 89.598,202.167 89.606 C 201.745 89.609,201.130 89.795,200.800 90.018 M247.233 89.744 C 247.325 89.823,247.940 90.008,248.600 90.156 C 249.476 90.352,249.638 90.315,249.200 90.018 C 248.660 89.653,246.832 89.398,247.233 89.744 M266.000 96.979 C 266.000 97.089,266.540 97.459,267.200 97.800 C 267.860 98.141,268.400 98.331,268.400 98.221 C 268.400 98.111,267.860 97.741,267.200 97.400 C 266.540 97.059,266.000 96.869,266.000 96.979 M268.800 98.579 C 268.800 98.689,269.340 99.059,270.000 99.400 C 270.660 99.741,271.200 99.931,271.200 99.821 C 271.200 99.711,270.660 99.341,270.000 99.000 C 269.340 98.659,268.800 98.469,268.800 98.579 M277.561 104.288 C 278.310 104.900,279.705 106.098,280.661 106.951 C 281.618 107.804,282.400 108.383,282.400 108.239 C 282.400 107.876,279.924 105.735,277.887 104.335 L 276.200 103.177 277.561 104.288 M171.800 104.635 L 170.600 105.666 171.900 104.806 C 172.615 104.333,173.200 103.868,173.200 103.773 C 173.200 103.473,173.031 103.578,171.800 104.635 M168.654 107.033 C 168.023 107.587,167.587 108.120,167.683 108.216 C 167.779 108.313,168.374 107.854,169.004 107.196 C 170.396 105.743,170.216 105.659,168.654 107.033 M165.900 109.393 C 164.623 110.517,164.524 111.009,165.500 111.381 C 166.061 111.594,166.101 111.547,165.701 111.145 C 165.302 110.742,165.417 110.418,166.276 109.521 C 167.590 108.149,167.390 108.082,165.900 109.393 M283.688 109.413 C 284.286 110.043,284.847 110.477,284.935 110.379 C 285.023 110.280,284.533 109.765,283.847 109.234 L 282.600 108.269 283.688 109.413 M169.158 112.837 C 170.125 113.266,170.988 113.545,171.075 113.458 C 171.248 113.286,168.165 111.982,167.692 112.028 C 167.531 112.044,168.191 112.408,169.158 112.837 M288.019 113.478 C 288.030 113.655,289.410 115.240,291.085 117.000 C 292.760 118.760,293.628 119.570,293.015 118.800 C 291.255 116.593,287.998 113.123,288.019 113.478 M172.394 114.603 C 173.987 116.521,174.121 116.645,173.686 115.796 C 173.459 115.353,172.852 114.634,172.337 114.198 C 171.433 113.434,171.435 113.448,172.394 114.603 M174.114 118.600 C 174.117 119.700,174.195 120.103,174.287 119.495 C 174.379 118.886,174.377 117.986,174.282 117.495 C 174.187 117.003,174.111 117.500,174.114 118.600 M131.900 118.289 C 132.615 118.378,133.785 118.378,134.500 118.289 C 135.215 118.201,134.630 118.128,133.200 118.128 C 131.770 118.128,131.185 118.201,131.900 118.289 M139.900 118.289 C 140.615 118.378,141.785 118.378,142.500 118.289 C 143.215 118.201,142.630 118.128,141.200 118.128 C 139.770 118.128,139.185 118.201,139.900 118.289 M127.900 118.682 C 128.395 118.778,129.205 118.778,129.700 118.682 C 130.195 118.587,129.790 118.509,128.800 118.509 C 127.810 118.509,127.405 118.587,127.900 118.682 M145.105 118.683 C 145.602 118.779,146.322 118.775,146.705 118.675 C 147.087 118.575,146.680 118.496,145.800 118.501 C 144.920 118.505,144.607 118.587,145.105 118.683 M150.900 119.476 C 151.285 119.576,151.915 119.576,152.300 119.476 C 152.685 119.375,152.370 119.293,151.600 119.293 C 150.830 119.293,150.515 119.375,150.900 119.476 M116.800 120.800 C 115.996 121.057,115.957 121.123,116.600 121.132 C 117.040 121.138,117.760 120.989,118.200 120.800 C 119.219 120.362,118.168 120.362,116.800 120.800 M157.633 120.944 C 157.725 121.023,158.340 121.208,159.000 121.356 C 159.876 121.552,160.038 121.515,159.600 121.218 C 159.060 120.853,157.232 120.598,157.633 120.944 M168.100 124.276 C 168.485 124.376,169.115 124.376,169.500 124.276 C 169.885 124.175,169.570 124.093,168.800 124.093 C 168.030 124.093,167.715 124.175,168.100 124.276 M97.500 129.429 C 96.005 130.240,96.096 130.578,97.600 129.800 C 98.260 129.459,98.800 129.094,98.800 128.990 C 98.800 128.732,98.757 128.747,97.500 129.429 M93.200 132.449 C 91.806 133.671,91.805 133.672,93.088 132.819 C 93.796 132.348,94.482 131.791,94.612 131.581 C 94.997 130.957,94.677 131.154,93.200 132.449 M86.089 138.300 C 82.971 141.361,82.967 141.367,85.765 138.825 C 87.324 137.408,88.864 136.013,89.186 135.725 C 89.508 135.436,89.654 135.200,89.509 135.200 C 89.365 135.200,87.826 136.595,86.089 138.300 M311.462 158.600 C 311.596 159.480,311.772 160.275,311.853 160.367 C 312.156 160.710,311.929 158.568,311.581 157.800 C 311.329 157.242,311.293 157.485,311.462 158.600 M68.454 162.267 C 68.425 162.524,68.291 163.019,68.157 163.367 C 67.960 163.882,68.201 163.989,69.457 163.940 C 70.619 163.895,70.734 163.840,69.925 163.716 C 69.208 163.606,68.793 163.259,68.679 162.676 C 68.586 162.194,68.484 162.010,68.454 162.267 M72.000 163.446 C 74.388 163.746,77.110 163.776,76.939 163.500 C 76.836 163.335,75.458 163.227,73.876 163.260 C 72.294 163.293,71.450 163.376,72.000 163.446 M312.514 165.800 C 312.517 166.900,312.595 167.303,312.687 166.695 C 312.779 166.086,312.777 165.186,312.682 164.695 C 312.587 164.203,312.511 164.700,312.514 165.800 M94.390 169.026 C 94.176 169.590,94.021 170.625,94.047 171.326 C 94.085 172.355,94.155 172.239,94.411 170.720 C 94.585 169.686,94.845 168.651,94.988 168.420 C 95.130 168.189,95.142 168.000,95.014 168.000 C 94.885 168.000,94.605 168.462,94.390 169.026 M312.960 174.200 C 312.961 177.500,313.022 178.797,313.098 177.082 C 313.173 175.367,313.172 172.667,313.097 171.082 C 313.021 169.497,312.959 170.900,312.960 174.200 M95.398 174.737 C 95.834 175.252,96.553 175.859,96.996 176.086 C 97.845 176.521,97.721 176.387,95.803 174.794 C 94.648 173.835,94.634 173.833,95.398 174.737 M70.000 175.213 C 69.354 175.429,69.780 175.466,71.200 175.319 C 72.410 175.194,73.475 175.026,73.567 174.946 C 73.887 174.665,70.991 174.883,70.000 175.213 M326.833 174.944 C 326.925 175.023,327.900 175.191,329.000 175.318 C 330.287 175.467,330.715 175.426,330.200 175.203 C 329.436 174.872,326.486 174.645,326.833 174.944 M66.000 176.018 C 65.562 176.315,65.724 176.352,66.600 176.156 C 68.071 175.827,68.390 175.598,67.367 175.606 C 66.945 175.609,66.330 175.795,66.000 176.018 M333.000 176.000 C 333.440 176.189,334.070 176.344,334.400 176.344 C 334.778 176.344,334.704 176.217,334.200 176.000 C 333.760 175.811,333.130 175.656,332.800 175.656 C 332.422 175.656,332.496 175.783,333.000 176.000 M324.531 178.600 C 324.533 180.140,324.605 180.721,324.692 179.891 C 324.779 179.061,324.777 177.801,324.689 177.091 C 324.600 176.381,324.529 177.060,324.531 178.600 M335.633 176.544 C 335.725 176.623,336.340 176.808,337.000 176.956 C 337.876 177.152,338.038 177.115,337.600 176.818 C 337.060 176.453,335.232 176.198,335.633 176.544 M104.274 178.457 C 105.242 178.839,107.287 178.860,107.860 178.494 C 108.113 178.332,107.246 178.193,105.934 178.186 C 104.579 178.177,103.861 178.295,104.274 178.457 M43.700 185.218 C 42.325 186.099,41.200 186.911,41.200 187.022 C 41.200 187.235,45.524 184.573,46.180 183.957 C 46.932 183.250,46.156 183.645,43.700 185.218 M314.086 184.371 C 314.401 184.905,315.095 185.602,315.629 185.920 L 316.600 186.498 315.712 185.749 C 315.223 185.337,314.529 184.640,314.168 184.200 C 313.543 183.437,313.539 183.445,314.086 184.371 M322.402 185.127 C 321.406 186.177,321.282 186.419,321.973 185.971 C 322.798 185.435,324.391 183.546,323.949 183.627 C 323.867 183.643,323.171 184.318,322.402 185.127 M353.600 183.779 C 353.600 183.889,354.140 184.259,354.800 184.600 C 355.460 184.941,356.000 185.131,356.000 185.021 C 356.000 184.911,355.460 184.541,354.800 184.200 C 354.140 183.859,353.600 183.669,353.600 183.779 M39.185 188.429 L 37.800 189.658 39.300 188.581 C 40.626 187.630,41.057 187.200,40.685 187.200 C 40.622 187.200,39.947 187.753,39.185 188.429 M36.278 190.613 C 35.660 191.156,35.314 191.600,35.508 191.600 C 35.702 191.600,36.283 191.150,36.800 190.600 C 37.995 189.328,37.731 189.334,36.278 190.613 M363.000 190.249 C 366.868 194.070,371.115 197.886,368.800 195.462 C 367.370 193.964,365.300 192.001,364.200 191.099 C 363.100 190.197,362.560 189.815,363.000 190.249 M31.600 195.000 C 29.961 196.650,28.710 198.000,28.820 198.000 C 28.930 198.000,30.361 196.650,32.000 195.000 C 33.639 193.350,34.890 192.000,34.780 192.000 C 34.670 192.000,33.239 193.350,31.600 195.000 M26.573 200.553 C 24.342 203.360,20.966 208.400,21.318 208.400 C 21.408 208.400,22.349 207.095,23.407 205.500 C 24.465 203.905,26.051 201.744,26.930 200.698 C 27.809 199.652,28.455 198.731,28.364 198.651 C 28.274 198.572,27.468 199.428,26.573 200.553 M371.200 198.525 C 371.200 198.594,371.773 199.179,372.474 199.825 L 373.749 201.000 372.774 199.722 C 371.947 198.637,371.200 198.069,371.200 198.525 M317.634 202.647 C 318.165 203.333,318.680 203.823,318.779 203.735 C 318.877 203.647,318.443 203.086,317.813 202.488 L 316.669 201.400 317.634 202.647 M374.800 202.517 C 374.800 202.686,375.610 204.033,376.600 205.508 C 377.590 206.984,378.400 208.053,378.400 207.883 C 378.400 207.714,377.590 206.367,376.600 204.892 C 375.610 203.416,374.800 202.347,374.800 202.517 M304.493 214.800 C 304.493 215.570,304.575 215.885,304.676 215.500 C 304.776 215.115,304.776 214.485,304.676 214.100 C 304.575 213.715,304.493 214.030,304.493 214.800 M314.226 218.300 C 313.362 219.405,313.293 219.590,313.963 219.004 C 314.765 218.304,315.823 216.800,315.514 216.800 C 315.451 216.800,314.872 217.475,314.226 218.300 M307.862 220.100 C 307.964 220.265,309.016 220.400,310.200 220.400 C 311.384 220.400,312.436 220.265,312.538 220.100 C 312.640 219.935,311.588 219.800,310.200 219.800 C 308.812 219.800,307.760 219.935,307.862 220.100 M387.062 231.000 C 387.196 231.880,387.372 232.675,387.453 232.767 C 387.756 233.110,387.529 230.968,387.181 230.200 C 386.929 229.642,386.893 229.885,387.062 231.000 M12.649 230.615 C 12.512 230.973,12.415 231.566,12.434 231.933 C 12.453 232.300,12.627 232.069,12.821 231.420 C 13.198 230.158,13.065 229.533,12.649 230.615 M11.859 235.888 C 11.721 236.719,11.631 238.210,11.658 239.200 C 11.692 240.484,11.802 240.088,12.041 237.821 C 12.393 234.478,12.284 233.316,11.859 235.888 M387.901 237.400 C 388.014 238.940,388.172 240.275,388.253 240.367 C 388.547 240.700,388.335 236.178,388.020 235.400 C 387.835 234.942,387.784 235.798,387.901 237.400 M11.628 248.833 C 11.644 250.245,11.805 251.760,11.988 252.200 C 12.179 252.663,12.229 251.651,12.105 249.800 C 11.842 245.876,11.590 245.365,11.628 248.833 M388.069 249.000 C 388.025 250.100,387.896 251.450,387.783 252.000 L 387.577 253.000 388.007 252.016 C 388.243 251.476,388.371 250.126,388.292 249.016 L 388.148 247.000 388.069 249.000 M12.475 255.400 C 12.465 256.060,12.611 256.960,12.800 257.400 L 13.144 258.200 13.125 257.400 C 13.114 256.960,12.968 256.060,12.800 255.400 L 12.495 254.200 12.475 255.400 M387.249 255.400 C 387.216 255.840,387.096 256.650,386.983 257.200 L 386.777 258.200 387.206 257.219 C 387.442 256.679,387.561 255.869,387.472 255.419 C 387.313 254.621,387.307 254.621,387.249 255.400 M14.056 262.400 C 14.056 262.730,14.211 263.360,14.400 263.800 C 14.617 264.304,14.744 264.378,14.744 264.000 C 14.744 263.670,14.589 263.040,14.400 262.600 C 14.183 262.096,14.056 262.022,14.056 262.400 M21.324 279.400 C 21.662 280.060,22.238 280.960,22.604 281.400 C 22.970 281.840,22.865 281.480,22.370 280.600 C 21.280 278.658,20.464 277.722,21.324 279.400 M378.153 279.700 C 376.776 282.036,376.686 282.235,377.387 281.400 C 378.200 280.432,378.900 279.200,378.638 279.200 C 378.533 279.200,378.315 279.425,378.153 279.700 M24.037 283.600 C 25.196 285.396,25.200 285.401,25.198 284.967 C 25.197 284.765,24.732 284.060,24.165 283.400 L 23.134 282.200 24.037 283.600 M26.391 286.788 C 26.857 287.441,27.442 288.102,27.691 288.256 C 27.941 288.411,27.641 287.876,27.025 287.068 C 25.688 285.315,25.184 285.092,26.391 286.788 M367.392 293.300 L 363.800 297.000 367.500 293.408 C 369.535 291.433,371.200 289.768,371.200 289.708 C 371.200 289.418,370.728 289.864,367.392 293.300 M32.485 293.394 C 34.182 295.137,35.625 296.482,35.692 296.382 C 35.759 296.282,34.371 294.856,32.607 293.212 L 29.400 290.225 32.485 293.394 M361.185 298.829 L 359.800 300.058 361.300 298.981 C 362.626 298.030,363.057 297.600,362.685 297.600 C 362.622 297.600,361.947 298.153,361.185 298.829 M44.000 302.579 C 44.000 302.689,44.540 303.059,45.200 303.400 C 45.860 303.741,46.400 303.931,46.400 303.821 C 46.400 303.711,45.860 303.341,45.200 303.000 C 44.540 302.659,44.000 302.469,44.000 302.579 M62.400 310.782 C 62.730 311.005,63.345 311.191,63.767 311.194 C 64.790 311.202,64.471 310.973,63.000 310.644 C 62.124 310.448,61.962 310.485,62.400 310.782 M71.300 312.676 C 71.685 312.776,72.315 312.776,72.700 312.676 C 73.085 312.575,72.770 312.493,72.000 312.493 C 71.230 312.493,70.915 312.575,71.300 312.676 M327.505 312.683 C 328.002 312.779,328.722 312.775,329.105 312.675 C 329.487 312.575,329.080 312.496,328.200 312.501 C 327.320 312.505,327.007 312.587,327.505 312.683 M74.500 313.087 C 75.105 313.178,76.095 313.178,76.700 313.087 C 77.305 312.995,76.810 312.920,75.600 312.920 C 74.390 312.920,73.895 312.995,74.500 313.087 M323.300 313.087 C 323.905 313.178,324.895 313.178,325.500 313.087 C 326.105 312.995,325.610 312.920,324.400 312.920 C 323.190 312.920,322.695 312.995,323.300 313.087 M139.900 313.500 C 172.955 313.556,227.045 313.556,260.100 313.500 C 293.155 313.444,266.110 313.397,200.000 313.397 C 133.890 313.397,106.845 313.444,139.900 313.500 " stroke="none" fill="#6c6c6c" fill-rule="evenodd"></path></g></svg>